<svg version="1.2" xmlns="http://www.w3.org/2000/svg" viewBox="0 0 512 512" width="512" height="512">
	<title>PerfectSLogo-svg</title>
	<style>
		.s0 { fill: #000000 } 
		.s1 { fill: #82cc00 } 
	</style>
	<path id="Şekil 1" class="s0" d="m255.5 498.5c-134.3 0-242.9-108.6-242.9-243 0-134.3 108.6-242.9 242.9-242.9 134.4 0 243 108.6 243 242.9 0 134.4-108.6 243-243 243z"/>
	<path id="PS" fill-rule="evenodd" class="s1" d="m210.2 329.1q-18.7 18.7-45.5 18.7h-13.2v77.8h-51.8v-259h65q26.8 0.2 45.5 18.9 18.9 18.9 19.1 45.7v52.3q-0.2 26.5-19.1 45.6zm-36.5-106.9q-3.8-3.8-9.2-3.8h-13v77.8h13q5.4 0 9.2-3.8 3.8-3.9 3.8-9.3v-51.7q0-5.4-3.8-9.2zm215-111.3q23.3 24.1 23.3 57.9v34.2h-66.6v-34.2q0-6.8-4.9-11.6-4.8-4.9-11.8-4.9-6 0-10.5 3.7-0.7 0.5-1.2 1.2h-0.2q-0.5 0.5-0.9 1.1h-0.2q-0.6 0.8-0.8 1.2 0 0 0 0.2h-0.2q-0.4 0.8-0.6 1.2 0.2-0.2 0 0.3-0.6 0.6-0.8 1.1 0 0-0.2 0.7l-0.2 0.9q0 0-0.3 1-0.2 0.6-0.2 0.6 0 0.2-0.2 1 0 0.7 0 0.7c0 0.6 0 74.9 0 75.4q0 6.9 4.8 11.9 4.9 4.6 11.7 4.6l2.9 0.2q33.6 1.2 57.1 25.3 23.3 24.3 23.3 57.9 0 34.6-24.2 58.9-24.5 24.5-59.1 24.5h-83.3v-66.8h83.3q7 0 11.8-4.9 4.9-4.9 4.9-11.7 0-6.9-4.9-11.8-4.8-4.9-11.8-4.9h-3.3q-33.2-1.4-56.5-25.3-23.2-24.2-23.5-57.7v-74.2q0.3-34.4 24.4-58.6 24.3-24.2 58.7-24.5h3.1q33.6 1.2 57.1 25.4z"/>
</svg>