<svg version="1.2" xmlns="http://www.w3.org/2000/svg" viewBox="0 0 512 512" width="512" height="512">
	<title>appicon-svg</title>
	<style>
		.s0 { fill: #000000 } 
		.s1 { display: none;fill: #82cc00 } 
	</style>
	<path id="Şekil 1" class="s0" d="m255.5 498.5c-134.3 0-242.9-108.6-242.9-243 0-134.3 108.6-242.9 242.9-242.9 134.4 0 243 108.6 243 242.9 0 134.4-108.6 243-243 243z"/>
	<path id="PS" fill-rule="evenodd" class="s1" d="m229.3 283.5v-52.3q-0.2-26.8-19.1-45.7-18.7-18.7-45.5-18.9h-65v259h51.8v-77.8h13.2q26.8 0 45.5-18.7 18.9-19.1 19.1-45.6zm-51.8-52.1v51.7q0 5.4-3.8 9.3-3.8 3.8-9.2 3.8h-13v-77.8h13q5.4 0 9.2 3.8 3.8 3.8 3.8 9.2zm154.1-145.9h-3.1q-34.4 0.3-58.7 24.5-24.1 24.2-24.4 58.6v74.2q0.3 33.5 23.5 57.7 23.3 23.9 56.5 25.3h3.3q7 0 11.8 4.9 4.9 4.9 4.9 11.8 0 6.8-4.9 11.7-4.8 4.9-11.8 4.9h-83.3v66.8h83.3q34.6 0 59.1-24.5 24.2-24.3 24.2-58.9 0-33.6-23.3-57.9-23.5-24.1-57.1-25.3l-2.9-0.2q-6.8 0-11.7-4.6-4.8-5-4.8-11.9c0-0.5 0-74.8 0-75.4q0 0 0-0.7 0.2-0.8 0.2-1 0 0 0.2-0.6 0.3-1 0.3-1l0.2-0.9q0.2-0.7 0.2-0.7 0.2-0.5 0.8-1.1 0.2-0.5 0-0.3 0.2-0.4 0.6-1.2h0.2q0-0.2 0-0.2 0.2-0.4 0.8-1.2h0.2q0.4-0.6 0.9-1.1h0.2q0.5-0.7 1.2-1.2 4.5-3.7 10.5-3.7 7 0 11.8 4.9 4.9 4.8 4.9 11.6v34.2h66.6v-34.2q0-33.8-23.3-57.9-23.5-24.2-57.1-25.4z"/>
</svg>