<svg version="1.2" xmlns="http://www.w3.org/2000/svg" viewBox="0 0 512 512" width="512" height="512">
	<title>appicon-svg</title>
	<style>
		.s0 { fill: #000000 } 
		.s1 { fill: #82cc00 } 
	</style>
	<path id="Background" class="s0" d="m0-10h594v541h-594z"/>
	<path id="PS" fill-rule="evenodd" class="s1" d="m238.9 273.6v-33.4q-0.1-17.2-12.2-29.3-12-12-29.1-12.1h-41.6v165.8h33.1v-49.9h8.5q17.1 0 29.1-11.9 12.1-12.2 12.2-29.2zm-33.1-33.4v33.2q0 3.4-2.4 5.9-2.5 2.5-6 2.5h-8.3v-49.9h8.3q3.5 0 6 2.5 2.4 2.4 2.4 5.8zm98.6-93.3h-2q-22 0.1-37.6 15.7-15.4 15.5-15.6 37.5v47.4q0.2 21.5 15 37 15 15.3 36.2 16.1h2.2q4.4 0 7.5 3.2 3.1 3.2 3.1 7.6 0 4.3-3.1 7.5-3.1 3.1-7.5 3.1h-53.4v42.7h53.4q22 0 37.7-15.7 15.5-15.5 15.5-37.6 0-21.6-14.8-37.1-15.1-15.4-36.6-16.2l-1.8-0.1q-4.4 0-7.6-3-3-3.2-3-7.6c0-0.3 0-47.9 0-48.2q0 0 0-0.5 0.1-0.5 0.1-0.6 0 0 0.1-0.4 0.2-0.7 0.2-0.7l0.2-0.5q0-0.5 0-0.5 0.2-0.3 0.6-0.6 0.1-0.4 0-0.3 0.1-0.2 0.4-0.7h0.1q0-0.2 0-0.2 0.1-0.2 0.5-0.8h0.1q0.3-0.3 0.6-0.6h0.1q0.4-0.5 0.8-0.8 2.9-2.4 6.8-2.4 4.4 0 7.5 3.2 3.1 3 3.1 7.4v21.9h42.6v-21.9q0-21.6-14.8-37.1-15.1-15.4-36.6-16.2z"/>
</svg>